<svg xmlns="http://www.w3.org/2000/svg">
  <clipPath id="squircle-sm" clipPathUnits="objectBoundingBox">
    <path d="M0,.15 C0,.04 .04,0 .15,0 L.85,0 C.96,0 1,.04 1,.15 L1,.85 C1,.96 .96,1 .85,1 L.15,1 C.04,1 0,.96 0,.85 Z"/>
  </clipPath>
  <clipPath id="squircle-md" clipPathUnits="objectBoundingBox">
    <path d="M0,.25 C0,.06 .06,0 .25,0 L.75,0 C.94,0 1,.06 1,.25 L1,.75 C1,.94 .94,1 .75,1 L.25,1 C.06,1 0,.94 0,.75 Z"/>
  </clipPath>
  <clipPath id="squircle-lg" clipPathUnits="objectBoundingBox">
    <path d="M0,.35 C0,.08 .08,0 .35,0 L.65,0 C.92,0 1,.08 1,.35 L1,.65 C1,.92 .92,1 .65,1 L.35,1 C.08,1 0,.92 0,.65 Z"/>
  </clipPath>
  <clipPath id="squircle-full" clipPathUnits="objectBoundingBox">
    <path d="M0,.5 C0,.22 .22,0 .5,0 C.78,0 1,.22 1,.5 C1,.78 .78,1 .5,1 C.22,1 0,.78 0,.5 Z"/>
  </clipPath>
</svg>
